<mxfile host="Electron" agent="Mozilla/5.0 (Macintosh; Intel Mac OS X 10_15_7) AppleWebKit/537.36 (KHTML, like Gecko) draw.io/26.0.4 Chrome/128.0.6613.186 Electron/32.2.5 Safari/537.36" version="26.0.4">
  <diagram name="第 1 页" id="fhstzKK8-E9QKqBoT_mH">
    <mxGraphModel dx="1222" dy="613" grid="0" gridSize="10" guides="1" tooltips="1" connect="1" arrows="1" fold="1" page="0" pageScale="1" pageWidth="827" pageHeight="1169" math="0" shadow="0">
      <root>
        <mxCell id="0" />
        <mxCell id="1" parent="0" />
        <mxCell id="IydgL9ZS-PDwWwdMRRfb-1" value="Kernel" style="ellipse;whiteSpace=wrap;html=1;fillColor=#e1d5e7;strokeColor=#9673a6;" parent="1" vertex="1">
          <mxGeometry x="120" y="160" width="120" height="80" as="geometry" />
        </mxCell>
        <mxCell id="IydgL9ZS-PDwWwdMRRfb-2" value="Single-Stepping into Kernel State" style="ellipse;whiteSpace=wrap;html=1;fillColor=#dae8fc;strokeColor=#6c8ebf;" parent="1" vertex="1">
          <mxGeometry x="120" y="360" width="120" height="80" as="geometry" />
        </mxCell>
        <mxCell id="IydgL9ZS-PDwWwdMRRfb-3" value="User Process" style="ellipse;whiteSpace=wrap;html=1;fillColor=#e1d5e7;strokeColor=#9673a6;" parent="1" vertex="1">
          <mxGeometry x="440" y="360" width="120" height="80" as="geometry" />
        </mxCell>
        <mxCell id="IydgL9ZS-PDwWwdMRRfb-4" value="Single-Stepping into User State" style="ellipse;whiteSpace=wrap;html=1;fillColor=#dae8fc;strokeColor=#6c8ebf;" parent="1" vertex="1">
          <mxGeometry x="440" y="160" width="120" height="80" as="geometry" />
        </mxCell>
        <mxCell id="IydgL9ZS-PDwWwdMRRfb-5" value="" style="shape=flexArrow;endArrow=classic;html=1;rounded=0;fillColor=#d5e8d4;strokeColor=#82b366;" parent="1" edge="1">
          <mxGeometry width="50" height="50" relative="1" as="geometry">
            <mxPoint x="250" y="200" as="sourcePoint" />
            <mxPoint x="430" y="200" as="targetPoint" />
          </mxGeometry>
        </mxCell>
        <mxCell id="IydgL9ZS-PDwWwdMRRfb-6" value="" style="shape=flexArrow;endArrow=classic;html=1;rounded=0;fillColor=#d5e8d4;strokeColor=#82b366;" parent="1" edge="1">
          <mxGeometry width="50" height="50" relative="1" as="geometry">
            <mxPoint x="430" y="400" as="sourcePoint" />
            <mxPoint x="250" y="400" as="targetPoint" />
          </mxGeometry>
        </mxCell>
        <mxCell id="IydgL9ZS-PDwWwdMRRfb-7" value="" style="shape=flexArrow;endArrow=classic;html=1;rounded=0;fillColor=#d5e8d4;strokeColor=#82b366;" parent="1" edge="1">
          <mxGeometry width="50" height="50" relative="1" as="geometry">
            <mxPoint x="500" y="250" as="sourcePoint" />
            <mxPoint x="500" y="350" as="targetPoint" />
          </mxGeometry>
        </mxCell>
        <mxCell id="IydgL9ZS-PDwWwdMRRfb-8" value="" style="shape=flexArrow;endArrow=classic;html=1;rounded=0;fillColor=#d5e8d4;strokeColor=#82b366;" parent="1" edge="1">
          <mxGeometry width="50" height="50" relative="1" as="geometry">
            <mxPoint x="180" y="350" as="sourcePoint" />
            <mxPoint x="180" y="250" as="targetPoint" />
          </mxGeometry>
        </mxCell>
        <mxCell id="IydgL9ZS-PDwWwdMRRfb-9" value="" style="shape=flexArrow;endArrow=classic;html=1;rounded=0;fillColor=#d5e8d4;strokeColor=#82b366;" parent="1" edge="1">
          <mxGeometry width="50" height="50" relative="1" as="geometry">
            <mxPoint x="179.5" y="50" as="sourcePoint" />
            <mxPoint x="179.5" y="150" as="targetPoint" />
          </mxGeometry>
        </mxCell>
        <mxCell id="IydgL9ZS-PDwWwdMRRfb-10" value="initial" style="text;html=1;align=center;verticalAlign=middle;resizable=0;points=[];autosize=1;strokeColor=none;fillColor=none;" parent="1" vertex="1">
          <mxGeometry x="155" y="20" width="50" height="30" as="geometry" />
        </mxCell>
        <mxCell id="IydgL9ZS-PDwWwdMRRfb-15" value="Check if Kernel Border" style="whiteSpace=wrap;html=1;fillColor=#fff2cc;strokeColor=#d6b656;" parent="1" vertex="1">
          <mxGeometry y="100" width="80" height="30" as="geometry" />
        </mxCell>
        <mxCell id="IydgL9ZS-PDwWwdMRRfb-16" value="Interrupt" style="whiteSpace=wrap;html=1;fillColor=light-dark(#fbe1e0, #512d2b);strokeColor=#FF9999;" parent="1" vertex="1">
          <mxGeometry y="130" width="80" height="30" as="geometry" />
        </mxCell>
        <mxCell id="IydgL9ZS-PDwWwdMRRfb-17" value="Check if&lt;br&gt;User State" style="whiteSpace=wrap;html=1;fillColor=#fff2cc;strokeColor=#d6b656;" parent="1" vertex="1">
          <mxGeometry x="620" y="127.5" width="80" height="30" as="geometry" />
        </mxCell>
        <mxCell id="IydgL9ZS-PDwWwdMRRfb-18" value="Interrupt" style="whiteSpace=wrap;html=1;strokeColor=light-dark(#ff9999, #ededed);fillColor=light-dark(#fbe1e0, #ededed);" parent="1" vertex="1">
          <mxGeometry x="620" y="157.5" width="80" height="30" as="geometry" />
        </mxCell>
        <mxCell id="IydgL9ZS-PDwWwdMRRfb-23" value="&lt;font style=&quot;font-size: 11px;&quot;&gt;Check if User Process Border&lt;/font&gt;" style="whiteSpace=wrap;html=1;fillColor=#fff2cc;strokeColor=#d6b656;" parent="1" vertex="1">
          <mxGeometry x="620" y="400" width="80" height="30" as="geometry" />
        </mxCell>
        <mxCell id="IydgL9ZS-PDwWwdMRRfb-24" value="Interrupt" style="whiteSpace=wrap;html=1;fillColor=light-dark(#fbe1e0, #ededed);strokeColor=light-dark(#ff9999, #572b2b);" parent="1" vertex="1">
          <mxGeometry x="620" y="430" width="80" height="30" as="geometry" />
        </mxCell>
        <mxCell id="IydgL9ZS-PDwWwdMRRfb-25" value="Check if&lt;br&gt;Kernel State" style="whiteSpace=wrap;html=1;fillColor=#fff2cc;strokeColor=#d6b656;" parent="1" vertex="1">
          <mxGeometry x="-20" y="400" width="80" height="30" as="geometry" />
        </mxCell>
        <mxCell id="IydgL9ZS-PDwWwdMRRfb-26" value="Interrupt" style="whiteSpace=wrap;html=1;fillColor=light-dark(#fbe1e0, #ededed);strokeColor=light-dark(#ff9999, #572b2b);" parent="1" vertex="1">
          <mxGeometry x="-20" y="430" width="80" height="30" as="geometry" />
        </mxCell>
        <mxCell id="IydgL9ZS-PDwWwdMRRfb-27" value="&lt;font style=&quot;font-size: 11px;&quot;&gt;Consecutive Single-Stepping&lt;/font&gt;" style="whiteSpace=wrap;html=1;fillColor=#d5e8d4;strokeColor=#82b366;" parent="1" vertex="1">
          <mxGeometry x="300" y="120" width="80" height="30" as="geometry" />
        </mxCell>
        <mxCell id="IydgL9ZS-PDwWwdMRRfb-28" value="At Kernel Border" style="whiteSpace=wrap;html=1;fillColor=light-dark(#fbe1e0, #512d2b);strokeColor=light-dark(#ff9999, #572b2b);" parent="1" vertex="1">
          <mxGeometry x="300" y="150" width="80" height="30" as="geometry" />
        </mxCell>
        <mxCell id="IydgL9ZS-PDwWwdMRRfb-29" value="&lt;font style=&quot;font-size: 11px;&quot;&gt;Consecutive Single-Stepping&lt;/font&gt;" style="whiteSpace=wrap;html=1;fillColor=#d5e8d4;strokeColor=#82b366;" parent="1" vertex="1">
          <mxGeometry x="300" y="420" width="80" height="30" as="geometry" />
        </mxCell>
        <mxCell id="IydgL9ZS-PDwWwdMRRfb-30" value="&lt;font style=&quot;font-size: 11px;&quot;&gt;At User Process Border&lt;/font&gt;" style="whiteSpace=wrap;html=1;fillColor=light-dark(#fbdfdf, #ededed);strokeColor=light-dark(#ff9999, #572b2b);" parent="1" vertex="1">
          <mxGeometry x="300" y="450" width="80" height="30" as="geometry" />
        </mxCell>
        <mxCell id="IydgL9ZS-PDwWwdMRRfb-32" value="&lt;font style=&quot;font-size: 10px;&quot;&gt;Breakpoint Group Switching&lt;/font&gt;" style="whiteSpace=wrap;html=1;fillColor=#d5e8d4;strokeColor=#82b366;" parent="1" vertex="1">
          <mxGeometry x="70" y="270" width="80" height="30" as="geometry" />
        </mxCell>
        <mxCell id="IydgL9ZS-PDwWwdMRRfb-33" value="At Kernel State" style="whiteSpace=wrap;html=1;fillColor=light-dark(#fbe1e0, #ededed);strokeColor=light-dark(#ff9999, #572b2b);" parent="1" vertex="1">
          <mxGeometry x="70" y="300" width="80" height="30" as="geometry" />
        </mxCell>
        <mxCell id="IydgL9ZS-PDwWwdMRRfb-34" value="&lt;font style=&quot;font-size: 10px;&quot;&gt;Breakpoint Group Switching&lt;/font&gt;" style="whiteSpace=wrap;html=1;fillColor=#d5e8d4;strokeColor=#82b366;" parent="1" vertex="1">
          <mxGeometry x="530" y="270" width="80" height="30" as="geometry" />
        </mxCell>
        <mxCell id="IydgL9ZS-PDwWwdMRRfb-35" value="At User State" style="whiteSpace=wrap;html=1;fillColor=light-dark(#fbe1e0, #ededed);strokeColor=light-dark(#ff9999, #572b2b);" parent="1" vertex="1">
          <mxGeometry x="530" y="300" width="80" height="30" as="geometry" />
        </mxCell>
        <mxCell id="ELokuc6IPtV3_dqG3IWx-5" value="" style="html=1;shadow=0;dashed=0;align=center;verticalAlign=middle;shape=mxgraph.arrows2.uTurnArrow;dy=5.02;arrowHead=30;dx2=19.98;rotation=-215;fillColor=#ffe6cc;strokeColor=#d79b00;" parent="1" vertex="1">
          <mxGeometry x="570" y="155" width="40" height="60" as="geometry" />
        </mxCell>
        <mxCell id="ELokuc6IPtV3_dqG3IWx-10" value="" style="html=1;shadow=0;dashed=0;align=center;verticalAlign=middle;shape=mxgraph.arrows2.uTurnArrow;dy=5.02;arrowHead=30;dx2=19.98;rotation=-140;fillColor=#ffe6cc;strokeColor=#d79b00;" parent="1" vertex="1">
          <mxGeometry x="560" y="405" width="40" height="60" as="geometry" />
        </mxCell>
        <mxCell id="ELokuc6IPtV3_dqG3IWx-11" value="" style="html=1;shadow=0;dashed=0;align=center;verticalAlign=middle;shape=mxgraph.arrows2.uTurnArrow;dy=5.02;arrowHead=30;dx2=19.98;rotation=-50;fillColor=#ffe6cc;strokeColor=#d79b00;" parent="1" vertex="1">
          <mxGeometry x="80" y="405" width="40" height="60" as="geometry" />
        </mxCell>
        <mxCell id="ELokuc6IPtV3_dqG3IWx-12" value="" style="html=1;shadow=0;dashed=0;align=center;verticalAlign=middle;shape=mxgraph.arrows2.uTurnArrow;dy=5.02;arrowHead=30;dx2=19.98;rotation=20;fillColor=#ffe6cc;strokeColor=#d79b00;" parent="1" vertex="1">
          <mxGeometry x="80" y="150" width="40" height="60" as="geometry" />
        </mxCell>
      </root>
    </mxGraphModel>
  </diagram>
</mxfile>
